<svg width="62" height="54" viewBox="0 0 62 54" fill="none" xmlns="http://www.w3.org/2000/svg">
<path d="M35.2374 0C21.7104 0 0 7.37999 0 20.8033C0 34.2266 11.0054 54 24.5324 54C38.0594 54 62 51.9961 62 38.5728C62 25.1495 48.7644 0 35.2374 0ZM40.2125 29.7581H32.6641V37.2487C32.6641 37.7453 32.4653 38.2216 32.1114 38.5728C31.7575 38.924 31.2775 39.1213 30.777 39.1213C30.2765 39.1213 29.7965 38.924 29.4426 38.5728C29.0887 38.2216 28.8899 37.7453 28.8899 37.2487V29.7581H21.3415C20.841 29.7581 20.361 29.5608 20.0071 29.2096C19.6532 28.8584 19.4543 28.3821 19.4543 27.8855C19.4543 27.3888 19.6532 26.9125 20.0071 26.5613C20.361 26.2101 20.841 26.0128 21.3415 26.0128H28.8899V18.5223C28.8899 18.0256 29.0887 17.5493 29.4426 17.1981C29.7965 16.847 30.2765 16.6497 30.777 16.6497C31.2775 16.6497 31.7575 16.847 32.1114 17.1981C32.4653 17.5493 32.6641 18.0256 32.6641 18.5223V26.0128H40.2125C40.713 26.0128 41.193 26.2101 41.5469 26.5613C41.9008 26.9125 42.0996 27.3888 42.0996 27.8855C42.0996 28.3821 41.9008 28.8584 41.5469 29.2096C41.193 29.5608 40.713 29.7581 40.2125 29.7581Z" fill="#FFD64A"/>
</svg>

