<svg width="18" height="19" viewBox="0 0 18 19" fill="none" xmlns="http://www.w3.org/2000/svg">
<path d="M13 14.3C12.6 14.3 12.2333 14.2467 11.9 14.14C11.5667 14.02 11.2867 13.84 11.06 13.6C10.7667 13.8133 10.42 13.9733 10.02 14.08C9.63333 14.1867 9.22667 14.24 8.8 14.24C8.14667 14.24 7.54667 14.14 7 13.94C6.46667 13.74 6 13.44 5.6 13.04C5.21333 12.64 4.91333 12.1467 4.7 11.56C4.48667 10.96 4.38 10.2667 4.38 9.48C4.38 8.82667 4.48667 8.21333 4.7 7.64C4.91333 7.05333 5.22 6.54667 5.62 6.12C6.03333 5.69333 6.53333 5.36 7.12 5.12C7.72 4.86667 8.4 4.74 9.16 4.74C9.89333 4.74 10.5533 4.8 11.14 4.92C11.7267 5.04 12.1933 5.16667 12.54 5.3V11.5C12.54 11.8733 12.6067 12.1333 12.74 12.28C12.8867 12.4133 13.08 12.48 13.32 12.48C13.8933 12.48 14.34 12.1267 14.66 11.42C14.9933 10.7 15.16 9.67333 15.16 8.34C15.16 7.51333 15.0133 6.74667 14.72 6.04C14.44 5.32 14.0267 4.7 13.48 4.18C12.9333 3.66 12.2667 3.25333 11.48 2.96C10.7067 2.65333 9.83333 2.5 8.86 2.5C7.9 2.5 7.01333 2.66 6.2 2.98C5.4 3.3 4.70667 3.76 4.12 4.36C3.54667 4.96 3.09333 5.69333 2.76 6.56C2.44 7.42667 2.28 8.40667 2.28 9.5C2.28 10.6467 2.44667 11.6533 2.78 12.52C3.11333 13.3733 3.58 14.0867 4.18 14.66C4.79333 15.2333 5.52 15.6667 6.36 15.96C7.21333 16.2533 8.16 16.4 9.2 16.4C9.92 16.4 10.5533 16.3533 11.1 16.26C11.66 16.18 12.08 16.1067 12.36 16.04L12.6 17.72C12.4533 17.76 12.26 17.8067 12.02 17.86C11.7933 17.9133 11.5267 17.96 11.22 18C10.9267 18.0533 10.6067 18.0933 10.26 18.12C9.91333 18.16 9.56 18.18 9.2 18.18C7.96 18.18 6.79333 18.0133 5.7 17.68C4.62 17.3467 3.67333 16.8267 2.86 16.12C2.06 15.4133 1.42 14.5133 0.94 13.42C0.473333 12.3267 0.24 11.02 0.24 9.5C0.24 8.04667 0.48 6.77333 0.96 5.68C1.44 4.57333 2.08 3.66 2.88 2.94C3.68 2.20667 4.59333 1.66 5.62 1.3C6.66 0.926665 7.74 0.739999 8.86 0.739999C10.02 0.739999 11.1067 0.913332 12.12 1.26C13.1333 1.60667 14.0133 2.11333 14.76 2.78C15.5067 3.43333 16.0933 4.24 16.52 5.2C16.96 6.16 17.18 7.25333 17.18 8.48C17.18 9.42667 17.0733 10.26 16.86 10.98C16.66 11.7 16.3733 12.3067 16 12.8C15.6267 13.2933 15.1867 13.6667 14.68 13.92C14.1733 14.1733 13.6133 14.3 13 14.3ZM10.42 12.12C10.3933 11.9733 10.3667 11.8067 10.34 11.62C10.3267 11.4333 10.32 11.2533 10.32 11.08V6.68C10.0533 6.61333 9.70667 6.58 9.28 6.58C8.82667 6.58 8.43333 6.65333 8.1 6.8C7.78 6.94667 7.51333 7.15333 7.3 7.42C7.08667 7.67333 6.92667 7.98 6.82 8.34C6.72667 8.68667 6.68 9.06667 6.68 9.48C6.68 10.32 6.86 11.0133 7.22 11.56C7.58 12.1067 8.14 12.38 8.9 12.38C9.14 12.38 9.38667 12.3667 9.64 12.34C9.90667 12.3 10.1667 12.2267 10.42 12.12Z" fill="#CACACA"/>
</svg>
