<svg width="37" height="23" viewBox="0 0 37 23" fill="none" xmlns="http://www.w3.org/2000/svg">
<path fill-rule="evenodd" clip-rule="evenodd" d="M2.875 0H20.125C20.8875 0 21.6188 0.302901 22.1579 0.842068C22.6971 1.38124 23 2.1125 23 2.875V4.20982H0V2.875C0 2.1125 0.302901 1.38124 0.842068 0.842068C1.38124 0.302901 2.1125 0 2.875 0ZM0.842068 17.2294C0.302901 16.6902 0 15.959 0 15.1965V7.29022H23V10H19C17.3431 10 16 11.3431 16 13C16 14.6569 17.3431 16 19 16H22.8854C22.7514 16.4604 22.5031 16.8843 22.1579 17.2294C21.6188 17.7686 20.8875 18.0715 20.125 18.0715H2.875C2.1125 18.0715 1.38124 17.7686 0.842068 17.2294ZM3.8395 10.2056C3.55066 10.4945 3.38839 10.8862 3.38839 11.2947V12.3215C3.38839 12.73 3.55066 13.1217 3.8395 13.4105C4.12834 13.6994 4.52009 13.8617 4.92857 13.8617H7.39286C7.80134 13.8617 8.19309 13.6994 8.48193 13.4105C8.77077 13.1217 8.93304 12.73 8.93304 12.3215V11.2947C8.93304 10.8862 8.77077 10.4945 8.48193 10.2056C8.19309 9.91678 7.80134 9.75451 7.39286 9.75451H4.92857C4.52009 9.75451 4.12834 9.91678 3.8395 10.2056ZM27 3.5C27.8284 3.5 28.5 4.17157 28.5 5V11.5H35C35.8284 11.5 36.5 12.1716 36.5 13C36.5 13.8284 35.8284 14.5 35 14.5H28.5V21C28.5 21.8284 27.8284 22.5 27 22.5C26.1716 22.5 25.5 21.8284 25.5 21V14.5H19C18.1716 14.5 17.5 13.8284 17.5 13C17.5 12.1716 18.1716 11.5 19 11.5H25.5V5C25.5 4.17157 26.1716 3.5 27 3.5Z" fill="#052137"/>
</svg>
