<svg width="23" height="19" viewBox="0 0 23 19" fill="none" xmlns="http://www.w3.org/2000/svg">
<path d="M0 15.1965C0 15.959 0.302901 16.6903 0.842068 17.2295C1.38124 17.7686 2.1125 18.0715 2.875 18.0715H20.125C20.8875 18.0715 21.6188 17.7686 22.1579 17.2295C22.6971 16.6903 23 15.959 23 15.1965V7.29028H0V15.1965ZM3.38839 11.2947C3.38839 10.8863 3.55066 10.4945 3.8395 10.2057C4.12834 9.91684 4.52009 9.75457 4.92857 9.75457H7.39286C7.80134 9.75457 8.19309 9.91684 8.48193 10.2057C8.77077 10.4945 8.93304 10.8863 8.93304 11.2947V12.3215C8.93304 12.73 8.77077 13.1218 8.48193 13.4106C8.19309 13.6994 7.80134 13.8617 7.39286 13.8617H4.92857C4.52009 13.8617 4.12834 13.6994 3.8395 13.4106C3.55066 13.1218 3.38839 12.73 3.38839 12.3215V11.2947Z" fill="#052137"/>
<path d="M20.125 0H2.875C2.1125 0 1.38124 0.302901 0.842068 0.842068C0.302901 1.38124 0 2.1125 0 2.875V4.20982H23V2.875C23 2.1125 22.6971 1.38124 22.1579 0.842068C21.6188 0.302901 20.8875 0 20.125 0Z" fill="#052137"/>
</svg>

