<svg width="19" height="21" viewBox="0 0 19 21" fill="none" xmlns="http://www.w3.org/2000/svg">
<path d="M17.9918 13.9954L17.1788 12.5314L15.4308 13.5034L16.2428 14.9644C16.2908 15.0494 16.3248 15.1374 16.3468 15.2284C16.3678 15.3104 16.3748 15.3924 16.3718 15.4794C16.3698 15.5624 16.3558 15.6454 16.3328 15.7284C16.3098 15.8074 16.2758 15.8854 16.2288 15.9634C16.1878 16.0354 16.1368 16.1014 16.0768 16.1614C16.0158 16.2224 15.9508 16.2744 15.8818 16.3154C15.8068 16.3594 15.7308 16.3924 15.6448 16.4164C15.5588 16.4404 15.4648 16.4524 15.3688 16.4524H10.7678V14.4524L6.76779 17.4524L10.7678 20.4524V18.4524H15.3688C15.6468 18.4524 15.9208 18.4154 16.1798 18.3434C16.4328 18.2734 16.6748 18.1704 16.9018 18.0354C17.1178 17.9074 17.3198 17.7494 17.4988 17.5674C17.6768 17.3884 17.8308 17.1874 17.9548 16.9744C18.0828 16.7574 18.1838 16.5254 18.2528 16.2864C18.3238 16.0404 18.3638 15.7884 18.3708 15.5414C18.3808 15.2784 18.3528 15.0134 18.2908 14.7594C18.2268 14.4984 18.1268 14.2424 17.9918 13.9954ZM2.62979 9.49137L0.31979 14.1114C0.19879 14.3534 0.11179 14.6074 0.05879 14.8664C0.00678997 15.1214 -0.01021 15.3804 0.00579 15.6294C0.02079 15.8794 0.0677901 16.1274 0.14279 16.3614C0.21779 16.5974 0.32279 16.8224 0.45079 17.0274C0.58079 17.2384 0.73479 17.4314 0.90979 17.6014C1.08779 17.7754 1.28579 17.9274 1.50479 18.0544C1.72879 18.1824 1.96679 18.2814 2.20979 18.3474C2.46579 18.4174 2.73379 18.4524 3.00379 18.4524H4.76779V16.4524H3.00379C2.90979 16.4524 2.81979 16.4404 2.73279 16.4174C2.65279 16.3954 2.57679 16.3634 2.50379 16.3224C2.43379 16.2814 2.36679 16.2314 2.30679 16.1714C2.24779 16.1144 2.19779 16.0494 2.15079 15.9734C2.10779 15.9054 2.07379 15.8314 2.04679 15.7494C2.02279 15.6714 2.00679 15.5924 2.00179 15.5054C1.99679 15.4264 2.00279 15.3434 2.01979 15.2604C2.03779 15.1734 2.06779 15.0874 2.10879 15.0044L4.36479 10.4924L5.96379 11.4154L5.36579 6.45237L0.76779 8.41637L2.62979 9.49137ZM15.3658 11.4164L15.9638 6.45237L14.3258 7.39737L11.4828 2.28037C11.3418 2.02737 11.1688 1.79737 10.9648 1.59537C10.7698 1.40237 10.5478 1.23737 10.3068 1.10537C10.0738 0.977373 9.82379 0.881373 9.56979 0.821373C9.31779 0.760373 9.05779 0.737373 8.79779 0.738373C8.53679 0.743373 8.27679 0.782374 8.02479 0.855374C7.76879 0.928374 7.52579 1.03537 7.29979 1.17137C7.06579 1.31437 6.85079 1.48837 6.66379 1.69137C6.47079 1.90037 6.30679 2.13837 6.17779 2.39637L5.44579 3.86037L7.23479 4.75537L7.96679 3.29037C8.01179 3.20037 8.06779 3.11937 8.13279 3.04837C8.19279 2.98437 8.26079 2.92737 8.33679 2.88237C8.40979 2.83737 8.49079 2.80237 8.57579 2.77837C8.66079 2.75437 8.74879 2.74037 8.83979 2.73837C8.92979 2.73737 9.01779 2.74537 9.10579 2.76737C9.18979 2.78737 9.27079 2.81837 9.34879 2.86137C9.42579 2.90337 9.49679 2.95637 9.55879 3.01737C9.62679 3.08537 9.68679 3.16437 9.73579 3.25237L12.5938 8.39837L10.7678 9.45237L15.3658 11.4164Z" fill="#5AE405"/>
</svg>

