<svg width="22" height="22" viewBox="0 0 22 22" fill="none" xmlns="http://www.w3.org/2000/svg">
<path d="M18.4642 21.9998H7.46418C6.52645 21.9998 5.62713 21.6273 4.96405 20.9642C4.30098 20.3012 3.92847 19.4018 3.92847 18.4641V7.46412C3.92847 6.52639 4.30098 5.62707 4.96405 4.96399C5.62713 4.30092 6.52645 3.92841 7.46418 3.92841H18.4642C19.4019 3.92841 20.3012 4.30092 20.9643 4.96399C21.6274 5.62707 21.9999 6.52639 21.9999 7.46412V18.4641C21.9999 19.4018 21.6274 20.3012 20.9643 20.9642C20.3012 21.6273 19.4019 21.9998 18.4642 21.9998Z" fill="#052137"/>
<path d="M6.28571 2.35702H17.8691C17.6246 1.66817 17.173 1.07182 16.5762 0.649804C15.9794 0.227784 15.2667 0.000760389 14.5357 -0.00012207H3.53571C2.59798 -0.00012207 1.69866 0.37239 1.03559 1.03546C0.372512 1.69854 0 2.59786 0 3.53559V14.5356C0.000882459 15.2665 0.227906 15.9793 0.649926 16.5761C1.07195 17.1729 1.66829 17.6245 2.35714 17.869V6.28559C2.35714 5.24367 2.77104 4.24442 3.50779 3.50767C4.24454 2.77092 5.24379 2.35702 6.28571 2.35702Z" fill="#052137"/>
</svg>
