<svg width="79" height="79" viewBox="0 0 79 79" fill="none" xmlns="http://www.w3.org/2000/svg">
<path d="M39.5 0C17.7199 0 0 17.7199 0 39.5C0 61.2801 17.7199 79 39.5 79C61.2801 79 79 61.2801 79 39.5C79 17.7199 61.2801 0 39.5 0ZM29.963 22.1846C32.3691 19.6342 35.7551 18.2308 39.5 18.2308C43.2449 18.2308 46.6005 19.6437 49.0161 22.2074C51.4639 24.8052 52.6546 28.2957 52.3736 32.0482C51.8115 39.5 46.0384 45.5769 39.5 45.5769C32.9616 45.5769 27.1771 39.5 26.6264 32.0463C26.3473 28.2634 27.5361 24.7616 29.963 22.1846ZM39.5 72.9231C35.0381 72.926 30.6211 72.033 26.5109 70.2969C22.4006 68.5608 18.6808 66.017 15.5721 62.8164C17.3526 60.2773 19.6212 58.1185 22.2453 56.466C27.086 53.363 33.2123 51.6538 39.5 51.6538C45.7877 51.6538 51.914 53.363 56.749 56.466C59.3753 58.1177 61.6459 60.2766 63.4279 62.8164C60.3194 66.0174 56.5997 68.5614 52.4894 70.2975C48.3791 72.0336 43.9619 72.9265 39.5 72.9231Z" fill="#052137"/>
</svg>
