<svg width="20" height="23" viewBox="0 0 20 23" fill="none" xmlns="http://www.w3.org/2000/svg">
<path d="M19.1667 3.19328H14.1667V1.9958C14.1667 1.46648 13.9472 0.958841 13.5565 0.584556C13.1658 0.210271 12.6359 0 12.0833 0H7.91667C7.36413 0 6.83423 0.210271 6.44353 0.584556C6.05283 0.958841 5.83333 1.46648 5.83333 1.9958V3.19328H0.833333C0.61232 3.19328 0.400358 3.27739 0.244078 3.4271C0.0877975 3.57681 0 3.77987 0 3.9916C0 4.20332 0.0877975 4.40638 0.244078 4.55609C0.400358 4.70581 0.61232 4.78992 0.833333 4.78992H1.71875L2.70833 20.0039C2.78229 21.3436 3.85417 22.3529 5.20833 22.3529H14.7917C16.1526 22.3529 17.2031 21.366 17.2917 20.0079L18.2812 4.78992H19.1667C19.3877 4.78992 19.5996 4.70581 19.7559 4.55609C19.9122 4.40638 20 4.20332 20 3.9916C20 3.77987 19.9122 3.57681 19.7559 3.4271C19.5996 3.27739 19.3877 3.19328 19.1667 3.19328ZM6.69635 19.1597H6.66667C6.4507 19.1598 6.24312 19.0796 6.08766 18.936C5.93221 18.7924 5.84103 18.5965 5.83333 18.3898L5.41667 7.21331C5.40879 7.00159 5.48904 6.79553 5.63975 6.64049C5.79046 6.48544 5.9993 6.3941 6.22031 6.38655C6.44133 6.37901 6.65642 6.45589 6.81826 6.60027C6.98011 6.74465 7.07546 6.94471 7.08333 7.15643L7.5 18.3329C7.50397 18.4378 7.48632 18.5423 7.44807 18.6406C7.40982 18.739 7.35171 18.8291 7.27707 18.9059C7.20244 18.9827 7.11273 19.0446 7.01308 19.0881C6.91344 19.1317 6.80581 19.156 6.69635 19.1597ZM10.8333 18.3613C10.8333 18.5731 10.7455 18.7761 10.5893 18.9258C10.433 19.0756 10.221 19.1597 10 19.1597C9.77899 19.1597 9.56702 19.0756 9.41074 18.9258C9.25446 18.7761 9.16667 18.5731 9.16667 18.3613V7.18487C9.16667 6.97315 9.25446 6.77009 9.41074 6.62038C9.56702 6.47066 9.77899 6.38655 10 6.38655C10.221 6.38655 10.433 6.47066 10.5893 6.62038C10.7455 6.77009 10.8333 6.97315 10.8333 7.18487V18.3613ZM12.5 3.19328H7.5V1.9958C7.49937 1.94321 7.50972 1.89104 7.53044 1.84234C7.55115 1.79364 7.58182 1.74939 7.62064 1.71221C7.65946 1.67502 7.70564 1.64564 7.75647 1.6258C7.80731 1.60595 7.86177 1.59604 7.91667 1.59664H12.0833C12.1382 1.59604 12.1927 1.60595 12.2435 1.6258C12.2944 1.64564 12.3405 1.67502 12.3794 1.71221C12.4182 1.74939 12.4488 1.79364 12.4696 1.84234C12.4903 1.89104 12.5006 1.94321 12.5 1.9958V3.19328ZM14.1667 18.3898C14.159 18.5965 14.0678 18.7924 13.9123 18.936C13.7569 19.0796 13.5493 19.1598 13.3333 19.1597H13.3031C13.1937 19.1559 13.0861 19.1316 12.9866 19.088C12.887 19.0444 12.7973 18.9825 12.7227 18.9057C12.6482 18.8289 12.5901 18.7388 12.5519 18.6405C12.5137 18.5423 12.496 18.4377 12.5 18.3329L12.9167 7.15643C12.9206 7.0516 12.946 6.94852 12.9915 6.8531C13.0369 6.75767 13.1016 6.67176 13.1817 6.60027C13.2619 6.52878 13.3559 6.47311 13.4585 6.43644C13.5611 6.39977 13.6703 6.38282 13.7797 6.38655C13.8891 6.39029 13.9967 6.41464 14.0963 6.45821C14.1959 6.50178 14.2856 6.56372 14.3602 6.64049C14.4349 6.71726 14.493 6.80736 14.5313 6.90565C14.5695 7.00393 14.5872 7.10848 14.5833 7.21331L14.1667 18.3898Z" fill="#E73E3E"/>
</svg>

