<svg width="31" height="8" viewBox="0 0 31 8" fill="none" xmlns="http://www.w3.org/2000/svg">
<path d="M15.4999 7.15385C17.4754 7.15385 19.0768 5.55241 19.0768 3.57693C19.0768 1.60144 17.4754 0 15.4999 0C13.5244 0 11.923 1.60144 11.923 3.57693C11.923 5.55241 13.5244 7.15385 15.4999 7.15385Z" fill="black"/>
<path d="M27.4231 7.15385C29.3986 7.15385 31 5.55241 31 3.57693C31 1.60144 29.3986 0 27.4231 0C25.4476 0 23.8462 1.60144 23.8462 3.57693C23.8462 5.55241 25.4476 7.15385 27.4231 7.15385Z" fill="black"/>
<path d="M3.57693 7.15385C5.55241 7.15385 7.15385 5.55241 7.15385 3.57693C7.15385 1.60144 5.55241 0 3.57693 0C1.60144 0 0 1.60144 0 3.57693C0 5.55241 1.60144 7.15385 3.57693 7.15385Z" fill="black"/>
</svg>

