<svg width="19" height="17" viewBox="0 0 19 17" fill="none" xmlns="http://www.w3.org/2000/svg">
<path d="M18.0937 0.150391H16.6289C16.5215 0.150391 16.4336 0.238281 16.4336 0.345703V12.9922H4.56835V11.21C4.56835 11.0464 4.37792 10.9536 4.25096 11.0562L0.786609 13.7905C0.763264 13.8088 0.744385 13.8321 0.731401 13.8588C0.718418 13.8854 0.71167 13.9147 0.71167 13.9443C0.71167 13.974 0.718418 14.0032 0.731401 14.0299C0.744385 14.0565 0.763264 14.0799 0.786609 14.0981L4.25096 16.8325C4.38036 16.9351 4.56835 16.8423 4.56835 16.6787V14.8477H16.7265C17.5884 14.8477 18.289 14.147 18.289 13.2852V0.345703C18.289 0.238281 18.2012 0.150391 18.0937 0.150391Z" fill="#EEEEEE"/>
</svg>

