<svg width="23" height="18" viewBox="0 0 23 18" fill="none" xmlns="http://www.w3.org/2000/svg">
<path d="M20.125 -0.00012207H2.875C2.11275 0.00069009 1.38196 0.302655 0.842969 0.839515C0.303978 1.37637 0.000815384 2.10428 0 2.86351V15.1362C0.000815384 15.8955 0.303978 16.6234 0.842969 17.1602C1.38196 17.6971 2.11275 17.9991 2.875 17.9999H20.125C20.8872 17.9991 21.618 17.6971 22.157 17.1602C22.696 16.6234 22.9992 15.8955 23 15.1362V2.86351C22.9992 2.10428 22.696 1.37637 22.157 0.839515C21.618 0.302655 20.8872 0.00069009 20.125 -0.00012207ZM19.397 4.73664L12.0042 10.4639C11.86 10.5755 11.6826 10.6361 11.5 10.6361C11.3174 10.6361 11.14 10.5755 10.9958 10.4639L3.60299 4.73664C3.51613 4.6713 3.44317 4.58943 3.38836 4.49577C3.33354 4.4021 3.29796 4.29852 3.28369 4.19105C3.26941 4.08357 3.27672 3.97434 3.30519 3.8697C3.33366 3.76506 3.38273 3.6671 3.44954 3.58151C3.51635 3.49592 3.59957 3.42441 3.69436 3.37114C3.78916 3.31786 3.89364 3.28388 4.00174 3.27118C4.10983 3.25847 4.21938 3.26729 4.32402 3.29712C4.42867 3.32695 4.52632 3.37719 4.61129 3.44493L11.5 8.78153L18.3887 3.44493C18.561 3.31537 18.7775 3.25854 18.9915 3.28674C19.2055 3.31495 19.3997 3.42591 19.5322 3.59565C19.6647 3.76538 19.7248 3.98024 19.6995 4.19376C19.6742 4.40727 19.5655 4.60229 19.397 4.73664Z" fill="#CACACA"/>
</svg>
