<svg width="44" height="38" viewBox="0 0 44 38" fill="none" xmlns="http://www.w3.org/2000/svg">
<path fill-rule="evenodd" clip-rule="evenodd" d="M18.9928 38C28.5926 38 44 32.8066 44 23.3607C44 13.9146 36.1897 0 26.5899 0C16.9901 0 0 1.41016 0 10.8561C0 20.3022 9.39301 38 18.9928 38ZM11 24.1965C11 24.959 11.3029 25.6902 11.8421 26.2294C12.3812 26.7686 13.1125 27.0715 13.875 27.0715H31.125C31.8875 27.0715 32.6188 26.7686 33.1579 26.2294C33.6971 25.6902 34 24.959 34 24.1965V16.2902H11V24.1965ZM14.3884 20.2947C14.3884 19.8862 14.5507 19.4944 14.8395 19.2056C15.1283 18.9168 15.5201 18.7545 15.9286 18.7545H18.3929C18.8013 18.7545 19.1931 18.9168 19.4819 19.2056C19.7708 19.4944 19.933 19.8862 19.933 20.2947V21.3215C19.933 21.73 19.7708 22.1217 19.4819 22.4106C19.1931 22.6994 18.8013 22.8616 18.3929 22.8616H15.9286C15.5201 22.8616 15.1283 22.6994 14.8395 22.4106C14.5507 22.1217 14.3884 21.73 14.3884 21.3215V20.2947ZM13.875 9H31.125C31.8875 9 32.6188 9.30292 33.1579 9.84204C33.6971 10.3812 34 11.1125 34 11.875V13.2098H11V11.875C11 11.1125 11.3029 10.3812 11.8421 9.84204C12.3812 9.30292 13.1125 9 13.875 9Z" fill="#FFD64A"/>
</svg>

