<svg width="491" height="277" viewBox="0 0 491 277" fill="none" xmlns="http://www.w3.org/2000/svg">
<path fill-rule="evenodd" clip-rule="evenodd" d="M169.403 38.7299L196.152 91.7289C199.396 98.1559 201.937 108.83 201.937 116.03V260.793C201.937 269.729 194.666 277 185.729 277H92.2075C83.2704 277 76 269.729 76 260.793V223.727L153.852 145.875C157.757 141.97 157.757 135.638 153.852 131.733L149.129 127.01C145.224 123.104 138.892 123.104 134.987 127.01L76 185.997V116.03C76 108.83 78.5413 98.1559 81.7852 91.7289L108.534 38.7299V26.5213H107.061C104.619 26.5213 102.64 24.5428 102.64 22.1011V4.42023C102.64 1.97849 104.619 0 107.061 0H170.877C173.318 0 175.297 1.97849 175.297 4.42023V22.1011C175.297 24.5428 173.318 26.5213 170.877 26.5213H169.403V38.7299ZM166.456 8.84042H111.481V17.6808H166.456V8.84042ZM117.374 39.7819C117.374 40.4738 117.212 41.1557 116.901 41.7734L100.078 75.1041C103.266 76.1379 105.502 77.8052 107.436 79.2515C110.059 81.2129 111.955 82.6297 116.181 82.6297C120.407 82.6297 122.303 81.2129 124.926 79.2515L124.926 79.2512C127.989 76.9615 131.799 74.1122 138.965 74.1122C146.131 74.1122 149.942 76.9612 153.004 79.2502L153.005 79.2509C155.629 81.2129 157.525 82.6297 161.752 82.6297C165.979 82.6297 167.875 81.2129 170.499 79.2509C172.434 77.8046 174.669 76.1373 177.858 75.1035L161.036 41.7734C160.724 41.1557 160.562 40.4738 160.562 39.7819V26.5213H117.374V39.7819ZM147.302 44.2021H130.635C128.194 44.2021 126.215 42.2236 126.215 39.7819C126.215 37.3402 128.194 35.3617 130.635 35.3617H147.302C149.743 35.3617 151.722 37.3402 151.722 39.7819C151.722 42.2236 149.743 44.2021 147.302 44.2021ZM36.5993 240.975C36.5436 240.919 36.4898 240.862 36.4381 240.804L1.17158 205.538C-0.390526 203.976 -0.390526 201.443 1.17158 199.881L4.87684 196.176C6.43894 194.614 8.9716 194.614 10.5337 196.176L43.1378 228.78L138.746 133.172C140.308 131.609 142.841 131.609 144.403 133.172L147.895 136.664C149.457 138.226 149.457 140.759 147.895 142.321L45.7485 244.467C44.1863 246.03 41.6537 246.03 40.0916 244.467L36.5993 240.975Z" fill="#052137"/>
<path d="M255.262 149.336C254.746 154.797 252.73 159.062 249.215 162.133C245.699 165.18 241.023 166.703 235.188 166.703C231.109 166.703 227.512 165.742 224.395 163.82C221.301 161.875 218.91 159.121 217.223 155.559C215.535 151.996 214.656 147.859 214.586 143.148V138.367C214.586 133.539 215.441 129.285 217.152 125.605C218.863 121.926 221.312 119.09 224.5 117.098C227.711 115.105 231.414 114.109 235.609 114.109C241.258 114.109 245.805 115.645 249.25 118.715C252.695 121.785 254.699 126.121 255.262 131.723H246.402C245.98 128.043 244.902 125.395 243.168 123.777C241.457 122.137 238.938 121.316 235.609 121.316C231.742 121.316 228.766 122.734 226.68 125.57C224.617 128.383 223.562 132.52 223.516 137.98V142.516C223.516 148.047 224.5 152.266 226.469 155.172C228.461 158.078 231.367 159.531 235.188 159.531C238.68 159.531 241.305 158.746 243.062 157.176C244.82 155.605 245.934 152.992 246.402 149.336H255.262ZM294.672 166H286.129V134.852H271.293V166H262.75V127.961H294.672V166ZM327.508 127.961H336.016V166H327.508V140.617L312.602 166H304.094V127.961H312.602V153.344L327.508 127.961ZM360.73 159.883C362.863 159.883 364.633 159.262 366.039 158.02C367.445 156.777 368.195 155.242 368.289 153.414H376.34C376.246 155.781 375.508 157.996 374.125 160.059C372.742 162.098 370.867 163.715 368.5 164.91C366.133 166.105 363.578 166.703 360.836 166.703C355.516 166.703 351.297 164.98 348.18 161.535C345.062 158.09 343.504 153.332 343.504 147.262V146.383C343.504 140.594 345.051 135.965 348.145 132.496C351.238 129.004 355.457 127.258 360.801 127.258C365.324 127.258 369.004 128.582 371.84 131.23C374.699 133.855 376.199 137.312 376.34 141.602H368.289C368.195 139.422 367.445 137.629 366.039 136.223C364.656 134.816 362.887 134.113 360.73 134.113C357.965 134.113 355.832 135.121 354.332 137.137C352.832 139.129 352.07 142.164 352.047 146.242V147.613C352.047 151.738 352.785 154.82 354.262 156.859C355.762 158.875 357.918 159.883 360.73 159.883ZM381.191 146.629C381.191 142.902 381.93 139.551 383.406 136.574C384.883 133.574 386.957 131.277 389.629 129.684C392.301 128.066 395.371 127.258 398.84 127.258C403.973 127.258 408.133 128.91 411.32 132.215C414.531 135.52 416.266 139.902 416.523 145.363L416.559 147.367C416.559 151.117 415.832 154.469 414.379 157.422C412.949 160.375 410.887 162.66 408.191 164.277C405.52 165.895 402.426 166.703 398.91 166.703C393.543 166.703 389.242 164.922 386.008 161.359C382.797 157.773 381.191 153.004 381.191 147.051V146.629ZM389.734 147.367C389.734 151.281 390.543 154.352 392.16 156.578C393.777 158.781 396.027 159.883 398.91 159.883C401.793 159.883 404.031 158.758 405.625 156.508C407.242 154.258 408.051 150.965 408.051 146.629C408.051 142.785 407.219 139.738 405.555 137.488C403.914 135.238 401.676 134.113 398.84 134.113C396.051 134.113 393.836 135.227 392.195 137.453C390.555 139.656 389.734 142.961 389.734 147.367ZM437.301 150.953H432.977V166H424.434V127.961H432.977V143.148H436.738L447.25 127.961H457.797L444.051 146.172L458.957 166H447.848L437.301 150.953Z" fill="#052137"/>
<path d="M247.633 226H239.09V194.852H224.254V226H215.711V187.961H247.633V226ZM255.121 206.629C255.121 202.902 255.859 199.551 257.336 196.574C258.812 193.574 260.887 191.277 263.559 189.684C266.23 188.066 269.301 187.258 272.77 187.258C277.902 187.258 282.062 188.91 285.25 192.215C288.461 195.52 290.195 199.902 290.453 205.363L290.488 207.367C290.488 211.117 289.762 214.469 288.309 217.422C286.879 220.375 284.816 222.66 282.121 224.277C279.449 225.895 276.355 226.703 272.84 226.703C267.473 226.703 263.172 224.922 259.938 221.359C256.727 217.773 255.121 213.004 255.121 207.051V206.629ZM263.664 207.367C263.664 211.281 264.473 214.352 266.09 216.578C267.707 218.781 269.957 219.883 272.84 219.883C275.723 219.883 277.961 218.758 279.555 216.508C281.172 214.258 281.98 210.965 281.98 206.629C281.98 202.785 281.148 199.738 279.484 197.488C277.844 195.238 275.605 194.113 272.77 194.113C269.98 194.113 267.766 195.227 266.125 197.453C264.484 199.656 263.664 202.961 263.664 207.367ZM311.23 210.953H306.906V226H298.363V187.961H306.906V203.148H310.668L321.18 187.961H331.727L317.98 206.172L332.887 226H321.777L311.23 210.953ZM350.887 213.766L358.621 187.961H367.727L352.609 231.766C350.289 238.164 346.352 241.363 340.797 241.363C339.555 241.363 338.184 241.152 336.684 240.73V234.121L338.301 234.227C340.457 234.227 342.074 233.828 343.152 233.031C344.254 232.258 345.121 230.945 345.754 229.094L346.984 225.824L333.625 187.961H342.836L350.887 213.766ZM404.922 226H396.379V194.852H381.543V226H373V187.961H404.922V226ZM412.41 206.629C412.41 202.902 413.148 199.551 414.625 196.574C416.102 193.574 418.176 191.277 420.848 189.684C423.52 188.066 426.59 187.258 430.059 187.258C435.191 187.258 439.352 188.91 442.539 192.215C445.75 195.52 447.484 199.902 447.742 205.363L447.777 207.367C447.777 211.117 447.051 214.469 445.598 217.422C444.168 220.375 442.105 222.66 439.41 224.277C436.738 225.895 433.645 226.703 430.129 226.703C424.762 226.703 420.461 224.922 417.227 221.359C414.016 217.773 412.41 213.004 412.41 207.051V206.629ZM420.953 207.367C420.953 211.281 421.762 214.352 423.379 216.578C424.996 218.781 427.246 219.883 430.129 219.883C433.012 219.883 435.25 218.758 436.844 216.508C438.461 214.258 439.27 210.965 439.27 206.629C439.27 202.785 438.438 199.738 436.773 197.488C435.133 195.238 432.895 194.113 430.059 194.113C427.27 194.113 425.055 195.227 423.414 197.453C421.773 199.656 420.953 202.961 420.953 207.367ZM468.52 210.953H464.195V226H455.652V187.961H464.195V203.148H467.957L478.469 187.961H489.016L475.27 206.172L490.176 226H479.066L468.52 210.953Z" fill="#052137"/>
</svg>
