<svg width="15" height="18" viewBox="0 0 15 18" fill="none" xmlns="http://www.w3.org/2000/svg">
<path d="M12.2727 6.6H11.5909V3.6C11.5909 2.64522 11.1599 1.72955 10.3927 1.05442C9.62551 0.379285 8.58498 0 7.5 0C6.41502 0 5.37449 0.379285 4.60729 1.05442C3.8401 1.72955 3.40909 2.64522 3.40909 3.6V6.6H2.72727C2.0042 6.6007 1.31096 6.85377 0.799672 7.30371C0.28838 7.75365 0.000789569 8.36369 0 9V15.6C0.000789569 16.2363 0.28838 16.8464 0.799672 17.2963C1.31096 17.7462 2.0042 17.9993 2.72727 18H12.2727C12.9958 17.9993 13.689 17.7462 14.2003 17.2963C14.7116 16.8464 14.9992 16.2363 15 15.6V9C14.9992 8.36369 14.7116 7.75365 14.2003 7.30371C13.689 6.85377 12.9958 6.6007 12.2727 6.6ZM10.2273 6.6H4.77273V3.6C4.77273 2.96348 5.06006 2.35303 5.57153 1.90294C6.08299 1.45286 6.77668 1.2 7.5 1.2C8.22332 1.2 8.91701 1.45286 9.42847 1.90294C9.93994 2.35303 10.2273 2.96348 10.2273 3.6V6.6Z" fill="#CACACA"/>
</svg>
