<svg width="56" height="50" viewBox="0 0 56 50" fill="none" xmlns="http://www.w3.org/2000/svg">
<path d="M8.26685 13.0223C8.26685 11.9177 9.16228 11.0223 10.2668 11.0223H11.778C12.8825 11.0223 13.778 11.9177 13.778 13.0223V36.5778C13.778 37.6824 12.8825 38.5778 11.778 38.5778H10.2668C9.16228 38.5778 8.26685 37.6824 8.26685 36.5778V13.0223ZM33.0668 12.4001C33.0668 11.6391 33.6837 11.0223 34.4446 11.0223C35.2056 11.0223 35.8224 11.6391 35.8224 12.4001V37.2001C35.8224 37.961 35.2056 38.5778 34.4446 38.5778C33.6837 38.5778 33.0668 37.961 33.0668 37.2001V12.4001ZM22.0446 13.0223C22.0446 11.9177 22.9401 11.0223 24.0446 11.0223H28.3113C29.4159 11.0223 30.3113 11.9177 30.3113 13.0223V36.5778C30.3113 37.6824 29.4159 38.5778 28.3113 38.5778H24.0446C22.9401 38.5778 22.0446 37.6824 22.0446 36.5778V13.0223ZM16.5335 12.4001C16.5335 11.6391 17.1504 11.0223 17.9113 11.0223C18.6722 11.0223 19.2891 11.6391 19.2891 12.4001V37.2001C19.2891 37.961 18.6722 38.5778 17.9113 38.5778C17.1504 38.5778 16.5335 37.961 16.5335 37.2001V12.4001ZM38.578 13.0223C38.578 11.9177 39.4734 11.0223 40.578 11.0223H44.8446C45.9492 11.0223 46.8446 11.9177 46.8446 13.0223V36.5778C46.8446 37.6824 45.9492 38.5778 44.8446 38.5778H40.578C39.4734 38.5778 38.578 37.6824 38.578 36.5778V13.0223Z" fill="white"/>
<path d="M5.51111 7.51111C5.51111 6.40654 6.40654 5.51111 7.51111 5.51111H14.5333C15.6379 5.51111 16.5333 4.61568 16.5333 3.51111V2C16.5333 0.895431 15.6379 0 14.5333 0H5.51111C2.47173 0 0 2.47173 0 5.51111V14.5333C0 15.6379 0.89543 16.5333 2 16.5333H3.51111C4.61568 16.5333 5.51111 15.6379 5.51111 14.5333V7.51111ZM5.51111 49.6H14.5333C15.6379 49.6 16.5333 48.7046 16.5333 47.6V46.0889C16.5333 44.9843 15.6379 44.0889 14.5333 44.0889H7.51111C6.40654 44.0889 5.51111 43.1935 5.51111 42.0889V35.0667C5.51111 33.9621 4.61568 33.0667 3.51111 33.0667H2C0.895431 33.0667 0 33.9621 0 35.0667V44.0889C0 47.1283 2.47173 49.6 5.51111 49.6ZM49.6 0H40.5778C39.4732 0 38.5778 0.895431 38.5778 2V3.51111C38.5778 4.61568 39.4732 5.51111 40.5778 5.51111H47.6C48.7046 5.51111 49.6 6.40654 49.6 7.51111V14.5333C49.6 15.6379 50.4954 16.5333 51.6 16.5333H53.1111C54.2157 16.5333 55.1111 15.6379 55.1111 14.5333V5.51111C55.1111 2.47173 52.6394 0 49.6 0ZM49.6 42.0889C49.6 43.1935 48.7046 44.0889 47.6 44.0889H40.5778C39.4732 44.0889 38.5778 44.9843 38.5778 46.0889V47.6C38.5778 48.7046 39.4732 49.6 40.5778 49.6H49.6C52.6394 49.6 55.1111 47.1283 55.1111 44.0889V35.0667C55.1111 33.9621 54.2157 33.0667 53.1111 33.0667H51.6C50.4954 33.0667 49.6 33.9621 49.6 35.0667V42.0889Z" fill="white"/>
</svg>

