<svg width="19" height="18" viewBox="0 0 19 18" fill="none" xmlns="http://www.w3.org/2000/svg">
<path d="M18.7088 16.1933L14.4016 12.1128C15.4386 10.805 15.9984 9.21311 15.9965 7.5774C15.9965 3.39932 12.4084 0.00012207 7.99824 0.00012207C3.58804 0.00012207 0 3.39932 0 7.5774C0 11.7555 3.58804 15.1547 7.99824 15.1547C9.72482 15.1565 11.4052 14.6261 12.7856 13.6437L17.0928 17.7242C17.3109 17.9089 17.5952 18.0074 17.8876 17.9997C18.1799 17.9919 18.458 17.8785 18.6648 17.6826C18.8716 17.4867 18.9914 17.2232 18.9996 16.9462C19.0077 16.6693 18.9037 16.3999 18.7088 16.1933ZM2.28521 7.5774C2.28521 6.50694 2.62027 5.46052 3.24803 4.57047C3.87579 3.68041 4.76804 2.9867 5.81196 2.57705C6.85588 2.1674 8.00458 2.06022 9.1128 2.26906C10.221 2.47789 11.239 2.99337 12.038 3.7503C12.8369 4.50723 13.3811 5.47161 13.6015 6.52151C13.8219 7.5714 13.7088 8.65964 13.2764 9.64861C12.844 10.6376 12.1117 11.4829 11.1722 12.0776C10.2327 12.6723 9.12817 12.9897 7.99824 12.9897C6.48361 12.988 5.03153 12.4172 3.96053 11.4026C2.88952 10.388 2.28703 9.01232 2.28521 7.5774Z" fill="#CACACA"/>
</svg>
