<svg width="19" height="18" viewBox="0 0 19 18" fill="none" xmlns="http://www.w3.org/2000/svg">
<path d="M10.7262 9.04473C12.8079 9.04473 14.6472 7.08445 14.8274 4.67461C14.9169 3.46397 14.5371 2.33497 13.7579 1.4962C12.987 0.667682 11.9092 0.211426 10.7262 0.211426C9.53369 0.211426 8.45516 0.664921 7.68974 1.48831C6.91564 2.32077 6.53825 3.45215 6.62501 4.67382C6.80207 7.08405 8.6409 9.04473 10.7262 9.04473Z" fill="#4731CC"/>
<path d="M18.9041 16.2911C18.5713 14.4448 17.5322 12.8939 15.8996 11.8055C14.4496 10.8389 12.6123 10.3066 10.7262 10.3066C8.84003 10.3066 7.00278 10.8389 5.55278 11.8051C3.9202 12.8935 2.8811 14.4444 2.54827 16.2908C2.47217 16.7139 2.57548 17.1323 2.83181 17.4387C2.94807 17.5783 3.09405 17.6902 3.25908 17.7662C3.42412 17.8422 3.60405 17.8804 3.78573 17.878H17.6666C17.8484 17.8806 18.0285 17.8425 18.1937 17.7666C18.3588 17.6906 18.505 17.5787 18.6213 17.4391C18.8769 17.1327 18.9802 16.7143 18.9041 16.2911Z" fill="#4731CC"/>
<path d="M3.47023 10.3066V8.72926H5.0476C5.21494 8.72926 5.37543 8.66279 5.49375 8.54446C5.61208 8.42613 5.67855 8.26565 5.67855 8.09831C5.67855 7.93097 5.61208 7.77049 5.49375 7.65216C5.37543 7.53384 5.21494 7.46736 5.0476 7.46736H3.47023V5.88998C3.47023 5.72265 3.40375 5.56216 3.28543 5.44383C3.1671 5.32551 3.00662 5.25903 2.83928 5.25903C2.67194 5.25903 2.51145 5.32551 2.39313 5.44383C2.2748 5.56216 2.20833 5.72265 2.20833 5.88998V7.46736H0.630951C0.463612 7.46736 0.303127 7.53384 0.184801 7.65216C0.0664749 7.77049 0 7.93097 0 8.09831C0 8.26565 0.0664749 8.42613 0.184801 8.54446C0.303127 8.66279 0.463612 8.72926 0.630951 8.72926H2.20833V10.3066C2.20833 10.474 2.2748 10.6345 2.39313 10.7528C2.51145 10.8711 2.67194 10.9376 2.83928 10.9376C3.00662 10.9376 3.1671 10.8711 3.28543 10.7528C3.40375 10.6345 3.47023 10.474 3.47023 10.3066Z" fill="#4731CC"/>
</svg>

