<svg width="38" height="38" viewBox="0 0 38 38" fill="none" xmlns="http://www.w3.org/2000/svg">
<g clip-path="url(#clip0)">
<path d="M19 37.9999C29.4934 37.9999 38 29.4933 38 18.9999C38 8.50647 29.4934 -0.00012207 19 -0.00012207C8.50659 -0.00012207 0 8.50647 0 18.9999C0 29.4933 8.50659 37.9999 19 37.9999Z" fill="#039BE5"/>
<path d="M8.69401 18.5882L27.0132 11.5249C27.8634 11.2178 28.606 11.7323 28.3305 13.018L28.3321 13.0164L25.2129 27.7113C24.9818 28.7532 24.3627 29.0065 23.4966 28.5157L18.7466 25.0149L16.4555 27.2221C16.2022 27.4754 15.9884 27.6892 15.4976 27.6892L15.8348 22.8553L24.6382 14.9022C25.0213 14.5649 24.5527 14.3749 24.0476 14.7106L13.1685 21.5601L8.47868 20.0971C7.46059 19.7741 7.43843 19.079 8.69401 18.5882Z" fill="white"/>
</g>
<defs>
<clipPath id="clip0">
<rect width="38" height="38" fill="white" transform="translate(0 -0.00012207)"/>
</clipPath>
</defs>
</svg>
