<svg width="18" height="19" viewBox="0 0 18 19" fill="none" xmlns="http://www.w3.org/2000/svg">
<path d="M8.66666 9.3333C10.8662 9.3333 12.8096 7.26206 13 4.71582C13.0946 3.43666 12.6933 2.24374 11.87 1.3575C11.0554 0.482082 9.91666 0 8.66666 0C7.40667 0 6.26709 0.479165 5.45834 1.34916C4.64043 2.22874 4.24168 3.42416 4.33334 4.71499C4.52043 7.26164 6.46334 9.3333 8.66666 9.3333Z" fill="#052137"/>
<path d="M17.3075 16.9899C16.9558 15.0391 15.8579 13.4004 14.1329 12.2504C12.6008 11.2291 10.6596 10.6666 8.66666 10.6666C6.67375 10.6666 4.73251 11.2291 3.20043 12.25C1.47543 13.4 0.377521 15.0387 0.0258558 16.9895C-0.0545606 17.4366 0.0546055 17.8787 0.325438 18.2024C0.448279 18.35 0.60252 18.4682 0.776898 18.5485C0.951276 18.6288 1.14139 18.6692 1.33335 18.6666H16C16.192 18.6693 16.3823 18.6291 16.5568 18.5489C16.7314 18.4686 16.8857 18.3504 17.0087 18.2029C17.2787 17.8791 17.3879 17.437 17.3075 16.9899Z" fill="#052137"/>
</svg>
