<svg width="38" height="38" viewBox="0 0 38 38" fill="none" xmlns="http://www.w3.org/2000/svg">
<g clip-path="url(#clip0)">
<path d="M38 -2.00012H0V38.9999H38V-2.00012Z" fill="#7D3DAF"/>
<path d="M31.0179 13.2488L31.0104 13.2188C30.4033 10.7649 27.6667 8.13165 25.1536 7.58383L25.1252 7.57799C21.0603 6.80253 16.9387 6.80253 12.8747 7.57799L12.8455 7.58383C10.3332 8.13165 7.59655 10.7649 6.98869 13.2188L6.98202 13.2488C6.23158 16.6759 6.23158 20.1512 6.98202 23.5783L6.98869 23.6083C7.57062 25.9575 10.1034 28.4697 12.5228 29.1606V31.8999C12.5228 32.8913 13.731 33.3783 14.4181 32.6629L17.1935 29.7779C17.7954 29.8116 18.3977 29.8304 18.9999 29.8304C21.0462 29.8304 23.0932 29.6369 25.1252 29.2492L25.1536 29.2434C27.6667 28.6955 30.4033 26.0623 31.0104 23.6084L31.0179 23.5784C31.7683 20.1512 31.7683 16.6759 31.0179 13.2488ZM28.8216 23.0813C28.4163 24.6823 26.3384 26.6726 24.6875 27.0403C22.5261 27.4513 20.3477 27.627 18.1714 27.5667C18.1281 27.5655 18.0865 27.5823 18.0563 27.6133C17.7475 27.9303 16.0299 29.6935 16.0299 29.6935L13.8744 31.9057C13.7168 32.0699 13.44 31.9582 13.44 31.7314V27.1936C13.44 27.1186 13.3865 27.0549 13.3128 27.0405C13.3124 27.0404 13.312 27.0403 13.3116 27.0402C11.6606 26.6725 9.58356 24.6822 9.17748 23.0812C8.50209 19.9836 8.50209 16.8434 9.17748 13.7457C9.58356 12.1448 11.6606 10.1544 13.3116 9.78671C17.0863 9.06879 20.9136 9.06879 24.6875 9.78671C26.3393 10.1544 28.4163 12.1448 28.8216 13.7457C29.4977 16.8435 29.4977 19.9836 28.8216 23.0813Z" fill="white"/>
<path d="M22.5914 25.176C22.3376 25.0989 22.0957 25.0471 21.871 24.9539C19.5433 23.9882 17.4011 22.7423 15.7041 20.8324C14.7392 19.7464 13.9839 18.5202 13.3454 17.2226C13.0427 16.6073 12.7875 15.9678 12.5274 15.3325C12.2903 14.7532 12.6396 14.1546 13.0074 13.7181C13.3525 13.3085 13.7966 12.995 14.2775 12.7639C14.6529 12.5835 15.0232 12.6875 15.2974 13.0057C15.8901 13.6936 16.4345 14.4167 16.8753 15.2141C17.1464 15.7046 17.072 16.3041 16.5807 16.6379C16.4613 16.719 16.3525 16.8142 16.2413 16.9058C16.1437 16.9861 16.0519 17.0673 15.9851 17.176C15.8628 17.375 15.857 17.6096 15.9357 17.8259C16.5416 19.4909 17.5627 20.7855 19.2386 21.4829C19.5067 21.5944 19.776 21.7244 20.085 21.6883C20.6024 21.6279 20.7699 21.0604 21.1324 20.7639C21.4868 20.4741 21.9397 20.4703 22.3214 20.7118C22.7032 20.9535 23.0733 21.2129 23.4412 21.475C23.8023 21.7324 24.1619 21.9841 24.495 22.2774C24.8153 22.5595 24.9256 22.9296 24.7452 23.3124C24.415 24.0135 23.9346 24.5967 23.2415 24.969C23.0458 25.074 22.8121 25.108 22.5914 25.176C22.3376 25.0988 22.8121 25.108 22.5914 25.176Z" fill="white"/>
<path d="M19.0062 11.9623C22.0509 12.0476 24.5516 14.0682 25.0875 17.0783C25.1788 17.5912 25.2114 18.1156 25.252 18.6361C25.2691 18.8551 25.1451 19.0631 24.9088 19.066C24.6647 19.0689 24.5549 18.8647 24.539 18.6458C24.5077 18.2125 24.4859 17.7774 24.4262 17.3477C24.111 15.0796 22.3025 13.2032 20.0449 12.8005C19.7052 12.7399 19.3575 12.724 19.0134 12.6879C18.7958 12.665 18.5109 12.6518 18.4627 12.3814C18.4223 12.1547 18.6136 11.9742 18.8295 11.9626C18.8882 11.9593 18.9472 11.962 19.0062 11.9623C22.0509 12.0476 18.9472 11.962 19.0062 11.9623Z" fill="white"/>
<path d="M23.6333 17.9605C23.6283 17.9985 23.6257 18.0879 23.6034 18.1721C23.5226 18.4778 23.0592 18.516 22.9524 18.2075C22.9208 18.116 22.9161 18.0118 22.9159 17.9133C22.9148 17.2684 22.7747 16.6242 22.4495 16.0631C22.1152 15.4864 21.6045 15.0016 21.0055 14.7083C20.6433 14.5309 20.2515 14.4207 19.8545 14.355C19.681 14.3263 19.5057 14.3089 19.3313 14.2846C19.12 14.2553 19.0072 14.1206 19.0172 13.9124C19.0266 13.7173 19.1691 13.577 19.3818 13.589C20.0805 13.6287 20.7554 13.7797 21.3766 14.1086C22.6398 14.7776 23.3614 15.8335 23.5721 17.2435C23.5816 17.3074 23.5969 17.3707 23.6017 17.4348C23.6137 17.5932 23.6212 17.7517 23.6333 17.9605C23.6283 17.9985 23.6212 17.7517 23.6333 17.9605Z" fill="white"/>
<path d="M21.7394 17.8867C21.4847 17.8913 21.3484 17.7503 21.3221 17.5168C21.3039 17.3539 21.2894 17.1889 21.2506 17.0305C21.174 16.7185 21.0082 16.4293 20.7457 16.2381C20.6218 16.1478 20.4814 16.082 20.3343 16.0396C20.1474 15.9856 19.9534 16.0005 19.767 15.9548C19.5645 15.9051 19.4525 15.7412 19.4844 15.5513C19.5133 15.3784 19.6815 15.2435 19.8703 15.2572C21.0508 15.3424 21.8945 15.9527 22.0149 17.3423C22.0234 17.4404 22.0334 17.544 22.0116 17.6378C21.9743 17.7984 21.8554 17.8789 21.7394 17.8867C21.4847 17.8913 21.8554 17.8789 21.7394 17.8867Z" fill="white"/>
</g>
<defs>
<clipPath id="clip0">
<rect y="-0.00012207" width="38" height="38" rx="19" fill="white"/>
</clipPath>
</defs>
</svg>
