<svg width="38" height="38" viewBox="0 0 38 38" fill="none" xmlns="http://www.w3.org/2000/svg">
<g clip-path="url(#clip0)">
<path d="M19 37.9999C29.4934 37.9999 38 29.4933 38 18.9999C38 8.50647 29.4934 -0.00012207 19 -0.00012207C8.50659 -0.00012207 0 8.50647 0 18.9999C0 29.4933 8.50659 37.9999 19 37.9999Z" fill="#4D76A1"/>
<path fill-rule="evenodd" clip-rule="evenodd" d="M18.2822 27.333H19.7735C19.7735 27.333 20.224 27.2836 20.4539 27.0357C20.6656 26.8081 20.6589 26.3806 20.6589 26.3806C20.6589 26.3806 20.6297 24.3796 21.5584 24.085C22.4739 23.7947 23.6495 26.0189 24.8956 26.8741C25.8378 27.5214 26.5538 27.3794 26.5538 27.3794L29.8855 27.333C29.8855 27.333 31.6284 27.2257 30.802 25.8553C30.7343 25.7432 30.3207 24.8416 28.3248 22.989C26.2358 21.05 26.5155 21.3636 29.032 18.0095C30.5646 15.9668 31.1773 14.7198 30.9859 14.1857C30.8034 13.6769 29.6762 13.8114 29.6762 13.8114L25.9249 13.8348C25.9249 13.8348 25.6468 13.7968 25.4405 13.9201C25.239 14.041 25.1093 14.3228 25.1093 14.3228C25.1093 14.3228 24.5155 15.9035 23.7237 17.2478C22.0533 20.0843 21.3853 20.234 21.1124 20.0579C20.4773 19.6474 20.6358 18.4088 20.6358 17.5289C20.6358 14.7801 21.0528 13.6339 19.824 13.3372C19.4162 13.2387 19.1161 13.1736 18.0733 13.1631C16.7348 13.1493 15.6018 13.1672 14.9603 13.4815C14.5336 13.6905 14.2044 14.1562 14.4049 14.183C14.6528 14.2161 15.2144 14.3343 15.5121 14.7398C15.8965 15.2627 15.8829 16.4373 15.8829 16.4373C15.8829 16.4373 16.1038 19.6732 15.3671 20.0752C14.8614 20.3509 14.1678 19.788 12.6786 17.2146C11.9155 15.8964 11.3394 14.4393 11.3394 14.4393C11.3394 14.4393 11.2283 14.167 11.0301 14.0214C10.7897 13.8449 10.4537 13.7887 10.4537 13.7887L6.88895 13.8121C6.88895 13.8121 6.35381 13.827 6.15737 14.0597C5.98261 14.2666 6.14349 14.6947 6.14349 14.6947C6.14349 14.6947 8.93432 21.224 12.0943 24.5144C14.9918 27.5312 18.2822 27.333 18.2822 27.333Z" fill="white"/>
</g>
<defs>
<clipPath id="clip0">
<rect width="38" height="38" fill="white" transform="translate(0 -0.00012207)"/>
</clipPath>
</defs>
</svg>
