<svg width="36" height="36" viewBox="0 0 36 36" fill="none" xmlns="http://www.w3.org/2000/svg">
<g clip-path="url(#clip0)">
<rect x="6" y="7.99988" width="24" height="21" fill="white"/>
<path d="M18.0045 -0.00012207H17.9955C8.07075 -0.00012207 0 8.07288 0 17.9999C0 21.9374 1.269 25.5869 3.42675 28.5501L1.1835 35.2371L8.10225 33.0254C10.9485 34.9109 14.3438 35.9999 18.0045 35.9999C27.9292 35.9999 36 27.9246 36 17.9999C36 8.07513 27.9292 -0.00012207 18.0045 -0.00012207ZM28.4782 25.4181C28.044 26.6444 26.3205 27.6614 24.9457 27.9584C24.0052 28.1586 22.7768 28.3184 18.6413 26.6039C13.3515 24.4124 9.945 19.0371 9.6795 18.6884C9.42525 18.3396 7.542 15.8421 7.542 13.2591C7.542 10.6761 8.85375 9.41838 9.3825 8.87838C9.81675 8.43513 10.5345 8.23263 11.223 8.23263C11.4458 8.23263 11.646 8.24388 11.826 8.25288C12.3547 8.27538 12.6202 8.30688 12.969 9.14163C13.4032 10.1879 14.4607 12.7709 14.5868 13.0364C14.715 13.3019 14.8433 13.6619 14.6632 14.0106C14.4945 14.3706 14.346 14.5304 14.0805 14.8364C13.815 15.1424 13.563 15.3764 13.2975 15.7049C13.0545 15.9906 12.78 16.2966 13.086 16.8254C13.392 17.3429 14.4495 19.0686 16.0065 20.4546C18.0157 22.2434 19.6447 22.8149 20.2275 23.0579C20.6617 23.2379 21.1793 23.1951 21.4965 22.8576C21.8993 22.4234 22.3965 21.7034 22.9028 20.9946C23.2628 20.4861 23.7173 20.4231 24.1943 20.6031C24.6803 20.7719 27.252 22.0431 27.7808 22.3064C28.3095 22.5719 28.6582 22.6979 28.7865 22.9206C28.9125 23.1434 28.9125 24.1896 28.4782 25.4181Z" fill="#2DDE54"/>
</g>
<defs>
<clipPath id="clip0">
<rect width="36" height="36" fill="white" transform="translate(0 -0.00012207)"/>
</clipPath>
</defs>
</svg>
