<svg xmlns="http://www.w3.org/2000/svg" width="138" height="38" viewBox="0 0 138 38">
    <g fill="none" fill-rule="evenodd">
        <path fill="#FFE100" d="M21.356 14.77l-1.028.24-.114.898-1.175-.071-.476.745-1.205-.369-.787.506-1.115-.633-1.03.231-.909-.826-1.185-.087-.612-.947-1.204-.385-.264-.97-1.11-.642.101-.9-.903-.85.47-.746-.603-.954.787-.514-.265-.98 1.03-.24.114-.898 1.175.064.477-.739 1.196.37.796-.505 1.107.627 1.037-.226.91.825 1.174.09.62.938 1.205.393.266.97 1.106.634-.108.915.9.835-.46.746.606.962-.78.513.256.98zm4.002-4.492c-.25-.073 2.506-1.484 2.501-2.063.02-1.356-2.751-2.463-5.655-2.406-.255.007-.057-1.484-.695-2.88-.486-.85-.59-1.027-3.532.193-.34-1.22-1.764-5.096-4.46-1.373-.448-.57-.78-1.354-1.613-1.749-.258.192-.804.843-1.311 1.702C9.979 1.324 8.678.433 7.517.586c-.189.152-.234.9-.342 2.055-.225.046-1.83-.53-3.062-.186-.052.2.504 1.532.909 2.136-.89-.058-2.468.48-2.883.897.02.24.046 1.02 1.953 2.608-1.073.32-2.044 1.308-2.08 1.548-.2 1.331 2.284 2.75 2.898 3.12-.614 1.18-1.084 2.807-.797 3.418 1.26 1.058 2.683 1.22 3.767 1.099a2.89 2.89 0 0 0-.174.722l-.022.16a3.913 3.913 0 0 1-.29.987c-.119.258-.119.4-.111.539v.014l.004.008c.062.578 1.39 1.058 2.387 1.058.2 0 .736 0 .992-.04h.01c1.212-.215 1.962-.496 2.454-.856.183-.13.295-.243.387-.33.424.85 1.492 2.293 4.204 3.457.394-.281 1.303-2.022 1.34-2.182.311.401 2.365 1.886 4.008 1.548.74-.64.628-3.513.628-3.513s1.585.617 2.72.506c.327-.032.817-.048.991-.577.077-.194.177-1.083-.015-1.846-.231-.963-1.377-2.055-1.36-2.07.005-.016 1.931-.257 2.96-1.636.138-.665-1.998-2.424-3.635-2.952z"/>
        <path fill="#96DE16" d="M12.86 31.847c1.1-1.883 3.29-4.374 8.574-3.69 0 0-6.126.768-8.574 3.69M1.46 24.085c4.796-.912 7.475 1.976 8.575 4.05-3.99-4.138-8.575-4.05-8.575-4.05m21.205 3.573c-3.689-3.155-6.616-.816-7.319-.421-1.187.777-2.003 1.534-2.59 2.262.35-1.794.906-4.31 1.054-5.26.201-1.26.742-4.794-.009-5.205-.195-.072-.227-.096-.295.628 0 0-.08 1.43-1.195 4.826-.453 1.563-.742 2.363-.985 3.112-.363-1.34-1.347-2.951-3.675-4.63-.7-.429-3.627-3.008-7.313.486-.315.352-.64.943.17 1.45.806.51 1.07.815 1.28 1.444.203.63 1.092 2.809 4.063 3.058 3.036.25 3.652.685 4.16 1.121 0 0 .278.274.547.437-.01.071-.026.144-.032.219 0 0-.447 4 .546 5.532 1.1 1.702 2.26 1.22 2.26 1.22s-.748-1.187-.965-3.397c.297-.138.639-.445.639-.445.64-.524 1.125-.79 4.148-1.033 2.974-.225 3.865-2.203 4.068-2.765.202-.573.465-.85 1.27-1.318.811-.459.477-.998.173-1.32"/>
        <g fill="#FFF">
            <path d="M117.556 7H99.441v5.924h6.095v17.75h5.928v-17.75h6.092zM91.268 15.356H82.93V7h-5.908v8.356h-1.734v5.919h1.734v9.4h5.908v-9.4h8.338v9.4h5.909V7h-5.909zM62.459 21.275h11.358v-5.919H62.452v-2.44l11.715.008L74.173 7H56.418v23.675h18.109l.006-5.923H62.459zM30 30.675h6.284l6.053-17.758h4.78l-.007 17.758h6.289V7H38.032z"/>
            <path d="M124.841 17.798l1.395-4.098 1.395 4.098h-2.79zM129.904 7h-7.333l-3.667 10.798h-4.02v5.91h2.015l-2.362 6.967h5.938l2.356-6.967h6.804l2.363 6.967h5.938L129.904 7z"/>
        </g>
    </g>
</svg>
