<svg xmlns="http://www.w3.org/2000/svg" width="100%" height="100%" fill="none" viewBox="0 0 840 168" fit="" preserveAspectRatio="xMidYMid meet" focusable="false">
    <g clip-path="url('/#a')">
        <path fill="#00A651" d="M220.923 37.081h-4.527v93.837h4.527V37.081z"></path>
        <path fill="#005826" d="M627.085 71.03h-31.337v8.879h11.142v26.636h9.227V79.909h10.968V71.03zM332.169 85.48c-1.219-5.049-5.049-7.138-8.879-7.138-4.875 0-8.182 2.612-9.227 7.138h18.106zm-7.834 13.754c3.482 0 6.441-1.567 8.008-3.482l7.312 4.178c-3.308 4.874-8.705 7.66-15.494 7.66-11.839 0-19.499-8.182-19.499-18.802s7.66-18.802 18.802-18.802c10.446 0 17.932 8.356 17.932 18.802 0 1.393-.174 2.611-.348 3.83h-26.811c1.393 4.526 5.223 6.616 10.098 6.616zM376.563 88.788c0-5.92-4.178-9.923-9.923-9.923-5.571 0-9.749 4.004-9.749 9.923 0 5.92 4.178 9.923 9.749 9.923 5.745 0 9.923-4.004 9.923-9.923zm9.227 0c0 10.62-7.834 18.802-17.235 18.802-5.223 0-8.879-1.915-11.49-5.223v18.454h-9.227v-49.79h9.227v4.178c2.611-3.308 6.267-5.223 11.49-5.223 9.401 0 17.235 8.182 17.235 18.802zM417.997 85.48c-1.218-5.049-5.048-7.138-8.879-7.138-4.874 0-8.182 2.612-9.226 7.138h18.105zm-8.008 13.754c3.482 0 6.441-1.567 8.008-3.482l7.312 4.178c-3.308 4.874-8.705 7.66-15.494 7.66-11.838 0-19.499-8.182-19.499-18.802s7.661-18.802 18.802-18.802c10.446 0 17.932 8.356 17.932 18.802 0 1.393-.174 2.611-.348 3.83h-26.81c1.392 4.526 5.222 6.616 10.097 6.616zM502.259 88.788c0-5.92-4.178-9.923-9.923-9.923-5.571 0-9.75 4.004-9.75 9.923 0 5.92 4.179 9.923 9.75 9.923s9.923-4.004 9.923-9.923zm9.053 0c0 10.62-7.835 18.802-17.236 18.802-5.222 0-8.878-1.915-11.49-5.223v18.454h-9.227v-49.79h9.227v4.178c2.612-3.308 6.268-5.223 11.49-5.223 9.401 0 17.236 8.182 17.236 18.802zM536.207 62.5c0-2.612 2.263-4.875 4.874-4.875 2.612 0 4.701 2.263 4.701 4.875 0 2.611-2.089 4.7-4.701 4.7-2.785 0-4.874-2.089-4.874-4.7zm7.312 22.98c-1.219-5.049-5.049-7.138-8.879-7.138-4.875 0-8.182 2.612-9.227 7.138h18.106zM522.628 62.5c0-2.612 2.263-4.875 4.874-4.875 2.612 0 4.701 2.263 4.701 4.875 0 2.611-2.089 4.7-4.701 4.7-2.611 0-4.874-2.089-4.874-4.7zm12.882 36.733c3.482 0 6.442-1.567 8.009-3.482l7.312 4.179c-3.308 4.874-8.705 7.66-15.495 7.66-11.838 0-19.498-8.183-19.498-18.802 0-10.62 7.66-18.802 18.802-18.802 10.446 0 17.932 8.356 17.932 18.802 0 1.392-.175 2.611-.349 3.83h-26.81c1.393 4.526 5.223 6.615 10.097 6.615zM556.924 88.788c0-10.62 8.008-18.802 18.802-18.802 6.964 0 13.057 3.656 15.842 9.227l-7.834 4.526c-1.393-2.96-4.526-4.7-8.008-4.7-5.397 0-9.575 4.004-9.575 9.749 0 5.57 4.004 9.575 9.575 9.575 3.656 0 6.79-1.74 8.182-4.7l8.009 4.526c-3.134 5.571-9.053 9.227-16.017 9.227-10.968 0-18.976-8.008-18.976-18.628zM658.594 88.788c0-5.745-4.178-9.75-9.575-9.75-5.397 0-9.575 4.005-9.575 9.75s4.178 9.75 9.575 9.75c5.397 0 9.575-4.005 9.575-9.75zm-28.377 0c0-10.62 8.356-18.802 18.802-18.802 10.445 0 18.802 8.182 18.802 18.802s-8.357 18.802-18.802 18.802c-10.62-.174-18.802-8.182-18.802-18.802zM456.647 106.545h10.793l-13.753-17.931 13.231-17.584H455.95l-10.271 14.45h-3.134V71.03h-9.053v35.515h9.053V92.444h4.004l10.098 14.101zM696.373 106.545h10.62l-13.579-17.931 13.231-17.584h-10.968l-10.272 14.45h-3.133V71.03h-9.053v35.515h9.053V92.444h3.83l10.271 14.101zM298.744 106.545h-9.749V66.852h-17.584v39.693h-9.749v-48.92h37.082v48.92zM98.188 147.109l1.218-7.66 20.369-1.741-2.437 27.333-6.964.696 1.741-21.239-7.486.696-.522 3.134c-2.786 16.364-7.834 19.15-13.754 19.672l.523-6.615c2.611-.348 5.223-2.089 7.312-14.276zM126.738 137.185l20.021-1.741-.522 5.919-13.057 1.219-.349 4.527 12.709-1.045-.522 5.919-12.709 1.045-.522 4.874 13.057-1.218-.522 5.919-20.021 1.741 2.437-27.159zM158.424 140.494l-7.66.696.522-6.093 22.284-1.915-.522 6.093-7.66.696-1.741 21.066-6.964.696 1.741-21.239z"></path>
        <path fill="#00A651" d="M150.764 141.19l7.66-.697-.523 7.138 6.268 6.442 1.393-14.276 7.486-.696.696-6.094-22.458 1.915-.522 6.268z"></path>
        <path fill="#005826" d="M71.03 142.06l24.372-23.851-22.458 1.915-23.676 23.851 21.761-1.915zM108.285 103.934a45.096 45.096 0 0 0 4.178 3.656l.349.348c.696.522 1.566 1.045 2.263 1.567.348.174.522.348.87.522.697.522 1.393.871 2.089 1.393.349.174.697.348 1.219.696l2.089 1.045c.348.174.871.348 1.219.522l.522.174c.522.174 1.219.522 1.741.697l1.567.522.87.174c.523.174 1.045.348 1.393.348.696.174 1.567.348 2.612.348h.522c.348 0 .696.174 1.044.174 1.045.174 2.089.174 2.96.174L109.33 90.006l-7.486 7.312 6.441 6.616z"></path>
        <path fill="#B2D235" d="M57.276 121.517l24.025-24.025c6.616-6.615 10.446-15.146 11.142-24.373L50.138 30.641c-20.194 1.74-36.037 18.628-36.037 39.17 0 7.835 2.263 15.495 6.79 21.936l2.089 3.134 15.494-15.494-.87-1.915c-1.219-2.438-1.741-5.049-1.741-7.66 0-9.75 8.008-17.758 17.757-17.758 9.75 0 17.758 8.008 17.758 17.758a17.71 17.71 0 0 1-4.875 12.186L.348 148.154l49.268-4.353 23.329-23.676-15.669 1.392z"></path>
        <path fill="#72BF44" d="M92.095 63.022C88.787 44.22 72.423 30.466 53.446 30.466c-1.044 0-2.263 0-3.307.174l42.304 42.48c.174-1.045.174-2.09.174-3.309 0-2.089-.174-4.352-.522-6.79zM138.753 37.778h-2.612c-1.392 0-2.959.174-4.352.174-.348 0-.522 0-.87.174l1.218-12.882 38.997-3.482L173.397 0l-61.106 5.397-4.875 56.406 26.462-2.263 18.802-18.802c-2.785-1.219-5.571-2.09-8.704-2.612-.174 0-2.264-.348-5.223-.348z"></path>
        <path fill="#00A651" d="M134.225 59.366c.523-.175 1.219-.175 2.09-.175h1.044c3.482 0 6.79 1.045 9.401 2.96 3.656 2.611 6.093 6.441 6.964 11.142.174 1.219.348 2.437.348 3.83 0 2.437-.522 4.875-1.393 7.138-.348 1.044-.87 2.089-1.567 2.96-.522.87-1.218 1.74-2.089 2.61-3.133 3.309-7.312 5.05-11.838 5.05H134.574c-.349 0-.697 0-1.045-.174-.174 0-.696-.175-.696-.175-.349 0-.523-.174-.871-.174-.174 0-.522-.174-.696-.174-.348-.174-.522-.174-.871-.348-.174-.174-.522-.174-.87-.348-.174-.174-.522-.174-.696-.348-.349-.174-.523-.349-.871-.523-.174-.174-.696-.522-.696-.522-.174-.174-.523-.348-.697-.522l-.87-.697c-.174-.174-.522-.348-.697-.522-.522-.522-1.044-.87-1.566-1.393l-6.268-6.267-7.834 7.66 26.462 26.114h1.567c21.414 0 38.301-17.41 38.301-39.519 0-10.62-4.005-20.543-11.142-28.029a41.347 41.347 0 0 0-12.013-8.357L133.703 59.54l.522-.174z"></path>
    </g>
    <defs>
        <clipPath id="a">
            <path fill="#fff" d="M0 0h840v168H0V0z"></path>
        </clipPath>
    </defs>
</svg>
